<!-- Generator: Adobe Illustrator 24.0.1, SVG Export Plug-In  -->
<svg version="1.1" xmlns="http://www.w3.org/2000/svg" xmlns:xlink="http://www.w3.org/1999/xlink" x="0px" y="0px"
	 width="521.471px" height="486.358px" viewBox="0 0 521.471 486.358" style="enable-background:new 0 0 521.471 486.358;"
	 xml:space="preserve">
<style type="text/css">
	.st0{fill:#3A3939;}
</style>
<defs>
</defs>
<g>
	<path class="st0" d="M360.442,486.358c-37.778-0.264-67.74-8.923-94.976-26.557c-3.481-2.254-5.789-2.183-9.258,0.023
		c-96.139,61.131-222.175,11.323-250.997-99.095c-23.247-89.061,33.661-182.632,123.506-202.841
		c45.381-10.208,87.923-2.908,127.195,22.016c4.769,3.027,7.472,1.327,11.128-0.994c91.888-58.351,216.505-11.551,247.367,92.86
		c28.053,94.91-30.092,191.586-127.393,211.403C376.573,485.299,365.789,485.742,360.442,486.358z M229.915,224.174
		c-42.317,51.611-48.556,140.776,9.431,203.301c57.419,61.912,153.87,67.713,217.608,13.287
		c64.683-55.232,75.035-150.787,23.885-216.806c-53.25-68.729-146.929-79.934-212.162-36.26c7.468,7.343,15.133,14.531,22.34,22.153
		c2.569,2.717,4.267,2.945,7.501,1.247c21.209-11.137,43.79-15.68,67.699-13.461c70.027,6.5,120.37,69.97,110.626,139.505
		c-12.354,88.162-112.939,134.362-187.773,86.246c-48.839-31.402-69.225-91.361-49.075-145.811
		c3.855-10.418,9.672-20.11,15.787-32.594c-3.214-2.581-7.612-6.108-12.004-9.641C239.153,231.619,234.533,227.893,229.915,224.174z
		 M227.585,426.667c-59.574,32.736-127.354,12.419-161.415-36.065C32.09,342.091,37.294,276.417,78.899,233.88
		c40.985-41.904,106.676-48.942,155.131-16.58c24.745,16.527,41.784,38.938,50.136,67.526c11.249,38.503,4.49,74.257-18.446,107.991
		c8.71,7.851,17.22,15.522,25.783,23.241c46.477-57.788,47.093-152.668-18.394-212.913c-64.123-58.99-163.568-54.382-223.528,10.411
		c-58.578,63.3-54.224,163.523,10.146,222.751c62.766,57.752,148.577,48.49,191.127,16.654
		C243.303,444.428,235.506,435.618,227.585,426.667z M221.942,419.631c-21.633-29.644-33.157-62.705-33.144-99.571
		c0.013-36.996,11.468-70.25,33.158-100.053c-42.674-24.801-104.371-19.451-143.49,26.659
		c-36.008,42.443-34.926,107.379,2.197,148.92C121.569,441.359,183.576,442.823,221.942,419.631z M300.359,419.995
		c37.26,22.734,100.758,22.065,142.324-26.229c38.227-44.414,35.946-111.135-6.212-154.285
		c-41.245-42.216-101.265-41.395-136.065-19.47C344.156,286.738,344.33,353.276,300.359,419.995z M260.658,384.235
		c29.102-37.963,25.164-97.731-0.162-128.345C234.671,291.365,233.334,345.667,260.658,384.235z"/>
	<path class="st0" d="M123.404,69.549c5.042-14.098,14.231-21.12,26.292-20.353c12.37,0.787,22.704,9.836,25.073,22.476
		c0.557,2.97-0.009,6.252-0.542,9.307c-3.137,17.952-6.414,35.879-9.665,53.811c-0.088,0.486-0.42,0.928-0.878,1.896
		c-10.127-3.145-20.264-6.304-30.408-9.44c-8.199-2.535-16.408-5.034-24.608-7.563c-12.225-3.77-19.708-16.519-17.53-29.845
		c2.052-12.553,12.715-21.183,25.744-20.79C118.961,69.11,121.034,69.362,123.404,69.549z M131.925,83.497
		c-3.261-1.786-5.906-3.474-8.739-4.743c-8.902-3.989-18.793-0.252-22.603,8.393c-3.732,8.468-0.017,20.886,7.95,23.606
		c16.04,5.476,32.337,10.202,48.906,15.355c0.459-1.976,0.87-3.466,1.146-4.982c2.574-14.155,5.102-28.319,7.691-42.472
		c1.85-10.11-5.844-20.184-16.222-21.153c-10.341-0.966-18.557,6.724-18.63,17.542C131.407,77.636,131.721,80.231,131.925,83.497z"
		/>
	<path class="st0" d="M199.572,65.284c-1.414-12.466-2.735-24.113-4.056-35.761c-0.257-2.266-0.489-4.535-0.771-6.797
		c-1.228-9.852,5.183-19.308,14.892-21.944c10.114-2.745,19.668,1.856,23.396,11.829c1.12,2.997,2.535,3.393,5.307,3.482
		c10.146,0.325,17.648,7.604,18.365,17.422c0.798,10.923-5.378,19.604-15.421,21.926C227.641,58.597,214.024,61.868,199.572,65.284z
		 M206.721,55.084c11.6-2.748,22.155-5.181,32.674-7.764c7.182-1.764,10.995-8.914,8.644-15.87
		c-2.138-6.324-9.196-8.858-16.117-5.763c-2.127,0.951-4.223,1.971-6.636,3.101c0.323-3.586,0.844-6.539,0.802-9.485
		c-0.087-6.127-4.727-10.85-10.506-11.044c-6.11-0.206-13.02,5.263-12.617,11.003C203.785,30.924,205.358,42.534,206.721,55.084z"/>
	<path class="st0" d="M259.121,71.251c2.595,0,4.844,0,7.536,0c0,24.074,0,48.018,0,72.334c-2.375,0-4.75,0-7.536,0
		C259.121,119.799,259.121,95.834,259.121,71.251z"/>
	<path class="st0" d="M202.671,115.803c2.357-1.478,4.402-2.761,6.933-4.349c6.526,10.377,12.924,20.548,19.486,30.982
		c-2.302,1.479-4.342,2.791-6.92,4.448C215.641,136.477,209.261,126.307,202.671,115.803z"/>
	<path class="st0" d="M303.593,146.943c-2.538-1.624-4.571-2.925-6.924-4.431c6.545-10.454,12.93-20.652,19.48-31.113
		c2.45,1.544,4.627,2.915,7.02,4.423C316.623,126.227,310.299,136.282,303.593,146.943z"/>
</g>
</svg>