<!-- Generator: Adobe Illustrator 24.0.1, SVG Export Plug-In  -->
<svg version="1.1" xmlns="http://www.w3.org/2000/svg" xmlns:xlink="http://www.w3.org/1999/xlink" x="0px" y="0px"
	 width="194.466px" height="145.223px" viewBox="0 0 194.466 145.223" style="enable-background:new 0 0 194.466 145.223;"
	 xml:space="preserve">
<style type="text/css">
	.st0{fill:#3A3A39;}
	.st1{fill:#8A8686;}
</style>
<defs>
</defs>
<g>
	<g>
		<g>
			<path class="st0" d="M62.72,94.724c0,3.551-4.496,8.94-7.382,10.831c-0.664,0.409-1.379,0.919-2.197,0.919
				c-0.587,0-0.843-0.562-0.843-1.021c0-1.15,8.378-6.974,8.378-11.341c0-4.24-6.743-5.134-10.013-5.134
				c-6.59,0-15.607,3.167-20.92,6.948c-1.66,1.175-4.112,3.065-4.112,5.288c0,6.641,18.723,13.793,18.723,26.564
				c0,6.028-4.113,10.83-9.196,13.973c-2.605,1.608-6.539,3.474-9.681,3.474c-1.661,0-3.678-0.588-3.678-2.529
				c0-6.13,20.435-15.989,20.767-16.909c0-0.025,0.025-0.103,0.025-0.128c0-0.536-0.255-1.099-0.409-1.584
				c-1.583-5.312-5.517-8.965-9.732-12.49c-2.324-1.916-9.042-6.973-9.042-10.345c0-3.321,2.273-5.518,4.956-7.28
				c6.054-3.908,15.07-6.36,22.299-6.36C55.415,87.598,62.72,88.799,62.72,94.724z M42.797,127.88c0-0.332,0.051-1.099-0.46-1.099
				s-11.086,6.999-12.312,7.867c-2.043,1.481-7.382,5.287-7.382,8.046c0,1.303,1.303,1.584,2.401,1.584
				c0.307,0,1.073-0.128,1.277-0.025v-0.025C34.188,143.461,42.797,135.798,42.797,127.88z"/>
			<path class="st0" d="M72.292,117.023c-0.103,0.588-1.609,1.66-2.12,2.044c-3.5,2.58-7.203,5.491-11.775,5.491
				c-2.401,0-4.113-1.583-4.113-4.01c0-3.372,3.219-8.148,6.871-8.148c0.69,0,1.226,0.741,1.226,1.379
				c0,2.401-3.831,5.39-6.156,5.186c-0.409,0.357-0.664,1.686-0.664,2.223c0,2.171,1.916,2.503,3.678,2.503
				c4.879,0,9.298-4.215,13.078-6.82l-0.128-0.025L72.292,117.023z M57.426,116.896h0.077l0.127,0.102
				c0.971,0.051,3.908-2.043,3.908-3.014c0-0.179-0.332-0.205-0.434-0.205C60.415,113.779,57.528,116.231,57.426,116.896z"/>
			<path class="st0" d="M85.214,119.501c-0.255,0.256-0.434,0.741-0.562,1.073c-0.945,2.656-1.89,4.036-4.036,5.9
				c-1.967,1.712-5.007,3.755-7.688,3.755c-1.482,0-2.605-0.817-2.605-2.375c0-1.84,1.379-3.168,2.656-4.292
				c-0.332-0.025-0.664,0.103-0.996,0.103c-0.843,0-1.328-0.945-1.328-1.712c0-5.057,4.598-12.516,7.407-16.551
				c2.887-4.164,6.054-7.816,9.885-11.137c1.405-1.226,4.394-3.832,6.386-3.832c0.817,0,1.201,0.613,1.201,1.354
				c0,2.555-4.036,7.586-5.568,9.477c-2.605,3.219-5.364,6.232-8.48,8.94c-0.766,0.664-2.529,2.35-3.627,2.35
				c-1.099,0-0.767-0.92-1.201-0.92c-1.021,0-4.674,8.89-4.674,10.473c0,0.128,0.025,0.358,0.204,0.358
				c1.175,0,7.561-7.434,10.345-7.434c1.865,0,2.427,1.073,2.58,2.784c0.051,0.46-0.077,0.945,0.511,0.945
				c0.459,0,6.232-1.481,7.254-1.763c0.127-0.025,0.229-0.076,0.357-0.076c0.102,0,0.153,0.102,0.153,0.204
				s-0.025,0.204-0.051,0.307c-0.996,0.179-7.739,1.839-8.199,2.12L85.214,119.501z M82.302,121.647
				c0.103-0.281,0.383-0.92,0.383-1.227c0-0.204-0.281-0.204-0.409-0.204c-0.613,0-4.164,1.226-4.879,1.507
				c-2.094,0.843-6.692,3.27-6.692,5.978c0,1.072,0.767,1.839,1.839,1.839C76.58,129.54,80.922,125.222,82.302,121.647z
				 M74.23,122.694c1.839-1.124,3.908-1.864,5.951-2.503c0.792-0.23,1.839-0.409,2.555-0.741c0.332-0.153,0.459-1.481,0.459-1.813
				c0-0.715-0.255-1.175-1.047-1.175c-1.354,0-2.886,1.175-3.908,1.992c-0.537,0.435-4.956,4.419-4.956,4.623
				c0,0.025,0.051,0.052,0.077,0.052C73.592,123.129,74.051,122.797,74.23,122.694z M79.799,106.296
				c-0.435,0.587-2.861,4.138-2.963,4.674c0.051,0.025,0.153,0.025,0.205,0.025c0.383,0,2.222-1.251,2.554-1.481
				c3.295-2.171,6.284-5.083,8.966-7.943c1.507-1.609,6.386-7.254,6.386-9.502c0-0.383-0.153-0.587-0.562-0.587
				C91.114,91.481,81.689,103.614,79.799,106.296z"/>
			<path class="st0" d="M97.904,114.111c0.665,0,1.661,0.512,1.661,1.277c0,0.741-0.741,1.073-1.379,1.073
				c-2.223,0-7.586,4.394-8.097,6.59c-0.026,0.153-0.051,0.281-0.077,0.435c0.025,0.179,0.204,0.281,0.383,0.281
				c1.507,0,7.868-6.616,9.247-6.616c0.281,0,0.485,0.204,0.485,0.485c0,0.945-0.919,2.146-0.919,3.27
				c0,1.175,1.047,1.431,2.018,1.431c1.124,0,2.299-0.384,3.295-0.869c0.767-0.383,1.507-0.894,2.248-1.328
				c1.686-1.021,3.346-2.094,5.006-3.142l0.256-0.153v0.128c0,0.357-1.763,1.481-2.018,1.66c-2.325,1.609-5.952,4.368-8.94,4.368
				h-0.025c-1.687,0-2.81-0.716-2.81-2.503c0-0.562,0.205-1.124,0.205-1.661c-0.051-0.076-0.205-0.102-0.281-0.102
				c-0.664,0-6.667,6.079-8.046,6.079c-0.817,0-1.252-0.92-1.252-1.609C88.861,119.961,94.609,114.111,97.904,114.111z"/>
			<path class="st0" d="M126.228,117.023c-0.153,0.485-10.856,5.722-10.856,6.488c0,0.689,0.511,1.379,0.511,2.12
				c0,2.81-2.707,4.394-5.262,4.394c-0.767,0-1.609-0.357-1.609-1.252c0-1.763,3.729-4.215,4.93-5.364
				c-0.076-0.791-2.682-3.346-2.682-5.211c0-2.758,2.861-4.93,5.007-6.181c0.689-0.409,1.481-0.843,2.299-0.843
				s1.609,0.664,1.609,1.507s-0.664,1.481-1.508,1.481c-1.481,0-6.104,2.707-6.104,4.316c0,0.536,2.146,4.139,2.478,4.139h0.153
				c2.12-1.048,9.604-5.748,11.086-5.799L126.228,117.023z M114.4,126.398c0.153-0.307,0.205-0.639,0.205-0.971
				c0-0.307-0.103-0.895-0.512-0.895h-0.076c-0.817,0.537-3.984,3.065-3.984,3.985c0,0.179,0.255,0.179,0.383,0.179
				C111.488,128.697,113.94,127.394,114.4,126.398z"/>
			<path class="st0" d="M131.562,106.525c0.204-0.307,0.409-0.613,0.588-0.919c-0.026,0.026-0.026-0.025-0.052-0.025
				c-3.448,0-13.461,1.839-16.808,3.014c-0.383,0.128-0.817,0.332-1.226,0.332c-0.435,0-0.868-0.409-0.868-0.843
				c0-0.256,0.076-0.485,0.255-0.69c0.741-0.843,14.994-2.35,17.446-2.554c0.281-0.025,2.043-0.153,2.248-0.332
				c0.843-0.766,3.039-4.24,4.138-4.24c0.639,0,1.252,0.587,1.252,1.226c0,0.792-1.891,2.197-2.479,2.81
				c0.281,0.103,0.767,0.103,1.022,0.103c3.882,0,10.089-0.153,13.972-0.153c0.511,0,6.105-0.128,6.438,0.204
				c0.153,0.153,0.229,0.255,0.229,0.485c0,0.613-0.792,0.613-1.2,0.613c-0.537,0-1.048-0.077-1.584-0.153
				c-2.912-0.485-8.199-0.409-11.137-0.409c-0.92,0-8.148-0.051-8.787,0.409c-0.817,0.613-3.678,4.112-4.394,5.057
				c-3.295,4.291-8.48,12.977-8.48,18.493c0,2.784,1.533,3.755,1.533,4.521c0,0.332-0.128,0.664-0.511,0.664
				c-1.635,0-1.865-3.27-1.865-4.444C121.294,122.209,127.373,112.503,131.562,106.525z"/>
			<path class="st0" d="M133.757,119.578c0.383-1.2,2.58-5.39,4.215-5.39c0.715,0,1.455,0.46,1.455,1.124
				c0,0.536-0.434,0.945-0.894,1.251c-1.686,1.099-3.678,3.985-3.678,5.799c0,1.431,1.175,1.916,2.682,1.916
				c5.594,0,12.899-7.178,13.921-7.178c0.025,0,0.077,0,0.077,0.025c0,0.536-4.777,3.959-5.518,4.47
				c-2.248,1.533-6.156,3.5-9.119,3.5c-2.223,0-3.499-1.481-3.499-3.27C133.399,121.059,133.526,120.293,133.757,119.578z
				 M141.573,108.237c0.536-0.18,1.251-0.026,1.66,0.357c0.255,0.255,0.307,0.383,0.229,0.766c-0.153,0.971-1.532,1.431-2.401,0.817
				C140.372,109.667,140.679,108.569,141.573,108.237z"/>
			<path class="st0" d="M156.385,114.111c0.664,0,1.66,0.512,1.66,1.277c0,0.741-0.74,1.073-1.379,1.073
				c-2.223,0-7.587,4.394-8.098,6.59c-0.025,0.153-0.051,0.281-0.076,0.435c0.025,0.179,0.204,0.281,0.383,0.281
				c1.507,0,7.867-6.616,9.247-6.616c0.28,0,0.485,0.204,0.485,0.485c0,0.945-0.92,2.146-0.92,3.27c0,1.175,1.047,1.431,2.018,1.431
				c1.124,0,2.299-0.384,3.296-0.869c0.766-0.383,1.507-0.894,2.247-1.328c1.687-1.021,3.347-2.094,5.007-3.142l0.255-0.153v0.128
				c0,0.357-1.762,1.481-2.018,1.66c-2.324,1.609-5.951,4.368-8.94,4.368h-0.025c-1.686,0-2.81-0.716-2.81-2.503
				c0-0.562,0.204-1.124,0.204-1.661c-0.051-0.076-0.204-0.102-0.28-0.102c-0.664,0-6.667,6.079-8.047,6.079
				c-0.817,0-1.251-0.92-1.251-1.609C147.343,119.961,153.09,114.111,156.385,114.111z"/>
			<path class="st0" d="M174.466,112.885c0.639,0,1.149,0.485,1.149,1.124c0,0.076-0.025,0.153-0.025,0.204
				c-0.153,0.868-1.431,1.891-2.069,2.478c-0.919,0.843-5.518,6.079-5.518,6.999c0,0.025,0.128,0.051,0.205,0.051
				c0.74,0,8.353-8.378,12.465-8.378c0.996,0,1.532,0.792,1.532,1.712c0,1.276-0.664,2.478-0.664,3.755
				c0,1.123,0.971,1.379,1.916,1.379c2.401,0,6.743-2.656,8.812-3.934c0.307-0.179,1.89-1.2,2.171-1.252
				c0.025,0.025,0.025,0.103,0.025,0.128c0,0.485-5.083,3.474-5.849,3.883c-1.609,0.868-3.935,1.967-5.773,1.967
				c-1.532,0-2.427-1.124-2.427-2.605c0-1.149,0.358-2.248,0.485-3.397c-0.102-0.051-0.229-0.076-0.357-0.076
				c-2.682,0-9.093,5.466-11.979,7.842c-0.511,0.408-1.941,1.2-1.941,0.229C166.624,122.362,171.579,112.885,174.466,112.885z"/>
		</g>
	</g>
	<g>
		<g>
			<path class="st1" d="M164.998,95.925c0.488-0.627,3.089-4.993,3.089-5.202c0-0.093-0.186-0.163-0.441-0.163
				c-0.464,0-3.483,0.395-4.227,0.558c-0.441,0.116-0.767,0.163-1.021,0.163c-0.209,0-0.372-0.07-0.581-0.232
				c-0.116-0.139-0.186-0.325-0.186-0.534c0-0.302,0.162-0.581,0.487-0.72c0.418-0.186,3.043-0.349,5.365-0.349h1.417
				c0.115-0.163,0.209-0.325,0.302-0.488c2.021-3.065,3.646-5.295,4.041-5.573c0.231-0.14,0.44-0.209,0.627-0.209
				c0.487,0,0.789,0.418,0.789,0.79c0,0.302-0.186,0.627-0.58,1.138c-1.277,1.579-3.205,4.041-3.298,4.18v0.023
				c0,0.116,0.349,0.139,2.113,0.139c2.601,0,6.41,0.163,6.851,0.325c0.279,0.093,0.441,0.279,0.441,0.511
				c0,0.162-0.069,0.302-0.162,0.395c-0.186,0.116-0.396,0.186-0.627,0.186c-0.232,0-0.465-0.046-0.697-0.14
				c-0.186-0.093-0.743-0.186-1.23-0.255c-0.534-0.07-2.811-0.116-4.668-0.116c-1.301,0-2.462,0.023-2.625,0.07
				c-0.604,0.139-3.925,4.877-4.063,5.829c-0.07,0.464-0.209,1.277-0.929,1.277c-0.419,0-0.558-0.581-0.558-0.859
				C164.627,96.529,164.789,96.18,164.998,95.925z"/>
		</g>
	</g>
	<g>
		<g>
			<path class="st0" d="M35.965,42.866c5.058,0.204,10.703,0.153,14.1,4.572c1.124,1.456,1.839,3.244,1.839,5.109
				c0,9.298-15.734,20.281-24.343,20.281c-1.992,0-6.028-0.587-6.028-3.423c0-0.664,0.715-2.58,1.583-2.58
				c0.23,0,0.409,0.281,0.409,0.485c0,0.741-1.303,1.226-1.303,2.222c0,1.89,3.448,2.248,4.802,2.248
				c3.602,0,7.101-1.277,10.115-3.193c4.317-2.759,12.772-11.265,12.772-16.654c0-1.967-0.919-3.627-2.35-4.955
				c-3.116-2.938-8.455-3.321-12.567-3.321c-0.715,0-1.813-0.025-2.503,0.205c-1.099,0.306-13.538,16.245-15.198,18.493h-0.026
				c0.358,2.222,0.562,4.419,0.562,6.641c0,6.82-1.43,13.385-4.189,19.592c-1.635,3.729-5.39,11.418-10.141,11.418
				c-2.427,0-3.5-1.814-3.5-4.036c0-9.298,10.115-25.032,15.07-33.079c0.333-0.485,0.613-0.996,0.945-1.481
				c-1.098-4.164-2.759-6.948-5.977-9.834c-1.431-1.277-3.678-3.116-5.67-3.116c-0.817,0-1.124-0.102-1.686-0.741
				c-0.051-0.051-0.102-0.46-0.102-0.562c0-0.281,0.127-0.817,0.459-0.817c0.843,0,1.635,0.153,2.452,0.153
				c5.441,0,12.414-1.686,17.957-2.503c1.507-0.23,3.142-0.306,4.624-0.639c2.273-0.536,3.474-3.806,5.134-3.806
				c0.664,0,1.201,0.536,1.201,1.201c0,0.792-0.689,1.379-1.073,2.018C34.203,42.738,35.097,42.84,35.965,42.866z M8.557,94.335
				c3.091-3.474,5.006-7.791,6.334-12.209c1.226-4.112,2.325-8.327,2.325-12.669c0-1.277-0.205-4.266-0.639-5.39
				c-0.077,0-0.128-0.025-0.23-0.025c-0.332,0-1.686,2.146-1.967,2.529c-4.266,6.207-13.104,20.817-13.104,28.25
				c0,1.175-0.026,3.448,1.635,3.448C4.598,98.269,7.458,95.536,8.557,94.335z M18.314,57.808c3.04-4.572,6.309-8.965,9.579-13.333
				h-0.077c-0.179-0.102-0.357-0.102-0.536-0.102c-1.533,0-19.157,3.372-20.333,3.908H6.896c0.281,0.23,0.562,0.383,0.843,0.562
				c3.832,2.401,6.564,5.977,8.353,10.064c0.077,0.025,0.434,0.792,0.485,0.919h0.332C17.395,59.162,17.88,58.498,18.314,57.808z"/>
			<path class="st0" d="M48.6,70.886c0.332-0.511,1.098-1.864,1.813-1.864c0.562,0,1.073,0.485,1.073,1.047
				c0,0.945-4.291,5.926-4.394,7.024c0.026,0.051,0.23,0.051,0.256,0.051c0.792,0,6.386-8.889,11.264-8.889
				c0.485,0,1.226,0.307,1.226,0.894c0,0.639-0.945,0.792-1.405,0.792c-2.222,0-4.955,1.865-6.488,3.346
				c-0.817,0.792-4.496,5.058-4.802,5.21c-0.127,0.077-0.281,0.128-0.434,0.128c-0.537,0-0.741-0.383-0.741-0.843
				C45.969,75.663,47.451,72.649,48.6,70.886z"/>
			<path class="st0" d="M62.211,73.339c0.383-1.2,2.58-5.39,4.214-5.39c0.715,0,1.456,0.46,1.456,1.124
				c0,0.537-0.434,0.945-0.894,1.251c-1.686,1.099-3.678,3.985-3.678,5.798c0,1.431,1.175,1.916,2.682,1.916
				c5.594,0,12.899-7.178,13.921-7.178c0.026,0,0.077,0,0.077,0.025c0,0.537-4.776,3.959-5.517,4.47
				c-2.248,1.533-6.156,3.5-9.119,3.5c-2.222,0-3.5-1.481-3.5-3.27C61.854,74.82,61.981,74.054,62.211,73.339z M70.027,61.998
				c0.537-0.179,1.252-0.026,1.661,0.357c0.255,0.255,0.306,0.383,0.229,0.766c-0.153,0.971-1.532,1.431-2.401,0.817
				C68.827,63.428,69.133,62.33,70.027,61.998z"/>
			<path class="st0" d="M94.085,70.784c-0.153,0.485-10.856,5.722-10.856,6.488c0,0.69,0.511,1.379,0.511,2.12
				c0,2.81-2.708,4.394-5.262,4.394c-0.766,0-1.609-0.357-1.609-1.251c0-1.763,3.729-4.215,4.93-5.364
				c-0.077-0.792-2.682-3.346-2.682-5.211c0-2.758,2.861-4.93,5.006-6.181c0.69-0.409,1.482-0.843,2.299-0.843
				s1.609,0.664,1.609,1.507s-0.664,1.481-1.507,1.481c-1.481,0-6.105,2.708-6.105,4.317c0,0.536,2.146,4.138,2.478,4.138h0.153
				c2.12-1.047,9.604-5.748,11.086-5.798L94.085,70.784z M82.259,80.159c0.153-0.307,0.204-0.639,0.204-0.971
				c0-0.307-0.102-0.894-0.511-0.894h-0.077c-0.817,0.537-3.985,3.065-3.985,3.985c0,0.179,0.255,0.179,0.383,0.179
				C79.347,82.458,81.799,81.155,82.259,80.159z"/>
			<path class="st0" d="M96.56,67.438c1.175-0.741,3.346-1.788,4.751-1.788c1.303,0,2.478,0.971,2.478,2.299
				c0,1.661-1.916,5.824-3.679,5.824c-0.281,0-0.613-0.281-0.613-0.588c0-0.383,2.759-3.167,2.759-4.93
				c0-0.639-0.332-0.894-0.944-0.894c-3.295,0-9.272,5.518-9.272,9.093c0,2.503,2.554,3.142,4.572,3.142
				c3.908,0,6.82-0.945,10.269-2.682c3.423-1.737,7.279-4.112,10.396-6.386c-0.051,0.051-0.102,0.128-0.102,0.204
				c0,0.46-4.164,3.142-4.675,3.474c-4.904,3.065-10.243,6.079-16.194,6.079c-2.708,0-5.364-1.2-5.364-4.266
				C90.94,72.879,94.031,69.073,96.56,67.438z"/>
			<path class="st0" d="M115.151,73.339c0.383-1.2,2.58-5.39,4.215-5.39c0.715,0,1.455,0.46,1.455,1.124
				c0,0.537-0.434,0.945-0.894,1.251c-1.686,1.099-3.678,3.985-3.678,5.798c0,1.431,1.175,1.916,2.682,1.916
				c5.594,0,12.899-7.178,13.921-7.178c0.025,0,0.077,0,0.077,0.025c0,0.537-4.777,3.959-5.518,4.47
				c-2.248,1.533-6.156,3.5-9.119,3.5c-2.223,0-3.499-1.481-3.499-3.27C114.794,74.82,114.921,74.054,115.151,73.339z
				 M122.968,61.998c0.536-0.179,1.251-0.026,1.66,0.357c0.255,0.255,0.307,0.383,0.229,0.766c-0.153,0.971-1.532,1.431-2.401,0.817
				C121.767,63.428,122.073,62.33,122.968,61.998z"/>
			<path class="st0" d="M146.948,55.995c-3.499,5.006-7.331,9.63-11.571,14.023c-1.175,1.226-1.532,1.788-2.247,3.32
				c-0.664,1.405-1.788,3.883-1.788,5.441c0,1.251,0.894,1.839,2.068,1.839c4.317,0,16.016-9.885,17.14-9.859l0.103,0.179
				c-1.456,1.124-2.938,2.197-4.444,3.244c-3.04,2.12-7.152,5.338-10.601,6.769c-1.149,0.485-1.431,0.562-2.708,0.562
				c-1.864,0-2.58-1.379-2.58-3.065c0-1.788,0.664-3.551,1.329-5.186h-0.077c-0.435-0.306-0.74-0.332-0.74-0.97
				c0-0.613,0.562-0.869,1.021-1.201c1.277-0.919,1.251-0.945,2.018-2.35c2.759-4.956,6.974-10.805,10.55-15.224
				c0.868-1.073,5.364-6.794,6.819-6.794c0.332,0,0.588,0.23,0.588,0.562C151.827,49.124,147.996,54.513,146.948,55.995z
				 M139.464,62.764c-0.204,0.307-1.354,1.992-1.43,2.299c0.051,0.025,0.127,0.025,0.179,0.025c0.894,0,12.286-13.972,12.516-16.296
				c-0.051-0.077-0.128-0.077-0.229-0.077C149.579,48.715,140.486,61.231,139.464,62.764z"/>
			<path class="st0" d="M155.399,67.872c0.664,0,1.66,0.511,1.66,1.277c0,0.741-0.74,1.073-1.379,1.073
				c-2.223,0-7.587,4.394-8.098,6.59c-0.025,0.153-0.051,0.281-0.076,0.434c0.025,0.179,0.204,0.281,0.383,0.281
				c1.507,0,7.867-6.616,9.247-6.616c0.28,0,0.485,0.204,0.485,0.485c0,0.945-0.92,2.146-0.92,3.27c0,1.175,1.047,1.43,2.018,1.43
				c1.124,0,2.299-0.383,3.296-0.869c0.766-0.383,1.507-0.894,2.247-1.328c1.687-1.021,3.347-2.094,5.007-3.142l0.255-0.153v0.127
				c0,0.358-1.762,1.482-2.018,1.661c-2.324,1.609-5.951,4.368-8.94,4.368h-0.025c-1.686,0-2.81-0.715-2.81-2.503
				c0-0.562,0.204-1.124,0.204-1.661c-0.051-0.077-0.204-0.102-0.28-0.102c-0.664,0-6.667,6.079-8.047,6.079
				c-0.817,0-1.251-0.919-1.251-1.609C146.357,73.722,152.104,67.872,155.399,67.872z"/>
		</g>
	</g>
	<g>
		<g>
			<g>
				<g>
					<g>
						<path class="st1" d="M64.566,11.355c4.535,2.066,9.132,3.999,13.803,5.737c4.708,1.751,9.491,3.306,14.347,4.592
							c4.829,1.279,9.731,2.29,14.682,2.958c4.944,0.667,9.937,0.984,14.926,0.872c5.022-0.113,10.037-0.662,14.955-1.69
							c0.611-0.128,1.22-0.263,1.827-0.405c0.404-0.094,0.256-0.722-0.148-0.627c-4.892,1.142-9.885,1.809-14.903,2.022
							c-4.929,0.209-9.872-0.01-14.77-0.581c-4.942-0.576-9.839-1.513-14.664-2.723c-4.817-1.207-9.563-2.686-14.236-4.365
							c-4.679-1.681-9.285-3.563-13.824-5.59c-0.553-0.247-1.105-0.496-1.656-0.748C64.532,10.637,64.189,11.183,64.566,11.355
							L64.566,11.355z"/>
						<g>
							<path class="st1" d="M112.095,24.6c-4.393-1.676-8.702-3.913-12.082-7.237c-0.981-0.965-1.874-2.018-2.651-3.155
								c-0.155-0.226-0.535-0.026-0.379,0.202c2.774,4.063,6.898,6.942,11.293,9.03c1.211,0.575,2.447,1.095,3.699,1.572
								C112.233,25.111,112.353,24.698,112.095,24.6L112.095,24.6z"/>
							<path class="st1" d="M100.862,18.335c-4.219-2.174-8.187-5.029-11.055-8.856c-0.851-1.135-1.587-2.351-2.201-3.63
								c-0.101,0.095-0.202,0.189-0.303,0.284c3.608,2.458,7.367,4.927,9.883,8.583c0.155,0.226,0.536,0.026,0.379-0.202
								c-2.563-3.724-6.359-6.242-10.036-8.747c-0.184-0.126-0.39,0.101-0.303,0.284c2.141,4.458,5.782,7.973,9.899,10.629
								c1.135,0.733,2.31,1.402,3.511,2.021C100.88,18.826,101.108,18.462,100.862,18.335L100.862,18.335z"/>
							<path class="st1" d="M95.261,11.728c-2.466-3.319-3.868-7.38-3.982-11.512c-0.135,0.032-0.27,0.064-0.404,0.096
								c2.268,4.477,4.867,8.779,7.054,13.299c0.654,1.352,1.271,2.721,1.839,4.111c0.105,0.256,0.483,0.052,0.379-0.202
								c-1.945-4.752-4.489-9.208-6.939-13.709c-0.667-1.225-1.324-2.456-1.954-3.701c-0.095-0.187-0.411-0.121-0.405,0.096
								c0.118,4.253,1.561,8.401,4.097,11.815C95.111,12.242,95.425,11.948,95.261,11.728L95.261,11.728z"/>
							<path class="st1" d="M104.603,20.855c-3.08-2.965-5.553-6.796-6.335-11.047c-0.234-1.274-0.299-2.57-0.193-3.861
								c-0.124,0.047-0.248,0.094-0.372,0.141c1.369,1.698,2.175,3.774,2.873,5.818c0.72,2.106,1.331,4.255,2.221,6.298
								c0.487,1.12,1.066,2.195,1.789,3.181c0.163,0.223,0.477-0.072,0.315-0.292c-2.657-3.624-3.238-8.279-5.075-12.298
								c-0.487-1.066-1.071-2.086-1.808-2.999c-0.126-0.156-0.358-0.032-0.372,0.141c-0.377,4.574,1.483,8.999,4.252,12.558
								c0.732,0.941,1.532,1.826,2.391,2.652C104.487,21.338,104.803,21.046,104.603,20.855L104.603,20.855z"/>
							<path class="st1" d="M104.151,20.675c-2.152-0.617-3.94-2.054-5.821-3.207c-1.958-1.201-4.084-2.1-6.427-1.907
								c-0.241,0.02-0.302,0.332-0.065,0.421c2.077,0.786,3.923,2.076,5.865,3.132c2.037,1.107,4.208,1.992,6.553,2.077
								c0.276,0.01,0.287-0.42,0.01-0.43c-2.389-0.087-4.581-1.035-6.642-2.18c-1.867-1.037-3.659-2.252-5.666-3.012
								c-0.022,0.14-0.044,0.281-0.065,0.421c2.393-0.198,4.512,0.775,6.492,2.017c1.811,1.136,3.561,2.483,5.645,3.08
								C104.296,21.164,104.418,20.751,104.151,20.675L104.151,20.675z"/>
						</g>
						<path class="st1" d="M66.015,11.293c-1.845-2.136-4.004-5.861-7.374-5.062c-0.108,0.026-0.193,0.147-0.16,0.258
							c0.399,1.322,1.413,2.291,2.545,3.024c1.402,0.908,2.988,1.517,4.553,2.079c0.04-0.137,0.08-0.275,0.121-0.412
							c-0.111-0.025-0.222-0.051-0.333-0.076c-0.268-0.061-0.391,0.351-0.121,0.412c0.111,0.025,0.222,0.051,0.333,0.076
							c0.27,0.062,0.382-0.319,0.121-0.412c-1.462-0.525-2.932-1.091-4.258-1.912c-1.104-0.683-2.156-1.595-2.543-2.877
							c-0.053,0.086-0.106,0.172-0.16,0.258c1.618-0.383,3.051,0.542,4.165,1.629c1.038,1.014,1.851,2.213,2.796,3.307
							C65.881,11.796,66.195,11.502,66.015,11.293L66.015,11.293z"/>
						<path class="st1" d="M61.162,9.218c-1.841-0.669-3.961-0.951-5.881-0.481c-0.125,0.031-0.217,0.191-0.14,0.31
							c0.948,1.472,2.902,1.932,4.518,2.192c2.009,0.322,4.047,0.341,6.075,0.431c0.241,0.011,0.303-0.359,0.065-0.421
							c-0.176-0.046-0.352-0.092-0.529-0.139c-0.267-0.07-0.389,0.342-0.121,0.412c0.176,0.046,0.352,0.092,0.529,0.139
							c0.022-0.14,0.044-0.281,0.066-0.421c-1.906-0.084-3.82-0.104-5.711-0.376c-1.542-0.222-3.598-0.598-4.513-2.019
							c-0.047,0.103-0.094,0.207-0.14,0.31c1.851-0.453,3.887-0.169,5.661,0.476C61.301,9.725,61.422,9.312,61.162,9.218
							L61.162,9.218z"/>
						<path class="st1" d="M59.195,10.676c-0.879,0.085-1.678,0.453-2.293,1.092c-0.065,0.067-0.092,0.173-0.043,0.258
							c0.797,1.386,2.784,1.302,4.148,1.142c1.829-0.214,3.636-0.754,5.343-1.432c0.189-0.075,0.118-0.339-0.041-0.396
							c-0.221-0.079-0.442-0.158-0.663-0.237c-0.26-0.093-0.381,0.319-0.121,0.412c0.221,0.079,0.442,0.158,0.663,0.237
							c-0.014-0.132-0.027-0.264-0.041-0.396c-1.561,0.62-3.207,1.105-4.871,1.345c-1.219,0.176-3.3,0.407-4.039-0.877
							c-0.015,0.086-0.029,0.172-0.043,0.258c0.532-0.553,1.223-0.903,1.99-0.977C59.456,11.079,59.471,10.65,59.195,10.676
							L59.195,10.676z"/>
						<path class="st1" d="M86.66,19.286c-4.619-1.978-8.768-5.661-10.93-10.232c-0.619-1.309-1.054-2.697-1.276-4.129
							c-0.122,0.065-0.244,0.13-0.367,0.196c2.05,2.16,3.867,4.53,5.725,6.853c1.731,2.166,3.473,4.381,5.539,6.243
							c0.878,0.791,1.83,1.529,2.926,1.989c0.254,0.107,0.373-0.306,0.121-0.412c-0.965-0.405-1.82-1.061-2.599-1.75
							c-0.948-0.838-1.815-1.766-2.651-2.715c-1.945-2.21-3.723-4.559-5.58-6.842c-1.018-1.251-2.056-2.488-3.166-3.658
							c-0.155-0.164-0.398-0.01-0.366,0.196c0.811,5.25,4.457,9.718,8.76,12.63c1.18,0.799,2.433,1.484,3.743,2.045
							C86.793,19.807,86.912,19.394,86.66,19.286L86.66,19.286z"/>
						<g>
							<path class="st1" d="M79.719,24.43c4.174,1.397,8.443,2.523,12.796,3.193c3.439,0.53,6.921,0.762,10.4,0.656
								c2.94-0.089,5.865-0.421,8.768-0.879c2.722-0.43,5.425-0.964,8.143-1.415c2.769-0.459,5.556-0.82,8.363-0.927
								c0.362-0.014,0.725-0.023,1.087-0.029c0.276-0.004,0.288-0.434,0.01-0.43c-2.81,0.046-5.605,0.347-8.38,0.778
								c-2.702,0.419-5.384,0.949-8.08,1.402c-2.87,0.482-5.756,0.868-8.664,1.019c-3.368,0.176-6.746,0.042-10.091-0.387
								c-4.239-0.544-8.411-1.546-12.485-2.827c-0.584-0.184-1.167-0.373-1.747-0.568C79.577,23.93,79.457,24.343,79.719,24.43
								L79.719,24.43z"/>
							<path class="st1" d="M79.683,24.019c-0.067,0.064-0.136,0.126-0.207,0.186c-0.068,0.058-0.138,0.114-0.209,0.168
								c-0.039,0.03-0.079,0.059-0.119,0.087c0.015-0.011,0.03-0.022,0.045-0.032c-0.064,0.046-0.129,0.089-0.195,0.132
								c-0.065,0.041-0.13,0.081-0.197,0.119c-0.065,0.037-0.13,0.072-0.196,0.105c-0.065,0.032-0.13,0.063-0.196,0.092
								c-0.065,0.029-0.13,0.055-0.196,0.081c-0.008,0.003-0.016,0.006-0.024,0.009c0.017-0.006,0.034-0.013,0.051-0.019
								c-0.066,0.025-0.133,0.048-0.2,0.069c-0.065,0.021-0.131,0.04-0.197,0.057c-0.065,0.017-0.13,0.033-0.195,0.046
								c-0.063,0.013-0.127,0.025-0.191,0.035c-0.062,0.01-0.125,0.019-0.188,0.025c-0.008,0.001-0.015,0.002-0.023,0.002
								c0.018-0.002,0.036-0.004,0.055-0.006c-0.062,0.007-0.125,0.012-0.188,0.015c-0.06,0.003-0.121,0.005-0.181,0.005
								c-0.058,0-0.117-0.001-0.175-0.004c-0.056-0.003-0.113-0.007-0.169-0.012c-0.054-0.005-0.107-0.012-0.161-0.02
								c-0.007-0.001-0.013-0.002-0.02-0.003c0.018,0.003,0.037,0.006,0.055,0.009c-0.088-0.014-0.176-0.031-0.262-0.053
								c-0.079-0.02-0.156-0.044-0.232-0.072c-0.039-0.015-0.078-0.03-0.117-0.047c0.018,0.008,0.035,0.016,0.053,0.023
								c-0.044-0.02-0.088-0.041-0.13-0.065c-0.039-0.022-0.076-0.045-0.112-0.071c-0.019-0.013-0.037-0.027-0.055-0.042
								c0.015,0.012,0.03,0.024,0.045,0.037c-0.038-0.031-0.073-0.065-0.104-0.102c-0.008-0.01-0.016-0.02-0.023-0.03
								c0.011,0.015,0.022,0.03,0.032,0.045c-0.017-0.024-0.032-0.049-0.044-0.076c-0.003-0.007-0.006-0.015-0.009-0.022
								c0.006,0.017,0.013,0.034,0.019,0.051c-0.01-0.026-0.016-0.052-0.019-0.08c0.002,0.018,0.004,0.036,0.006,0.055
								c-0.003-0.024-0.002-0.049,0.002-0.073c-0.003,0.018-0.006,0.037-0.009,0.055c0.004-0.026,0.012-0.051,0.023-0.076
								c-0.008,0.018-0.016,0.035-0.023,0.053c0.011-0.024,0.024-0.046,0.039-0.067c0.005-0.006,0.009-0.013,0.014-0.019
								c-0.012,0.015-0.024,0.03-0.037,0.045c0.025-0.031,0.054-0.058,0.085-0.082c0.01-0.008,0.02-0.015,0.03-0.023
								c-0.015,0.011-0.03,0.022-0.045,0.032c0.03-0.021,0.06-0.04,0.092-0.057c0.036-0.02,0.073-0.037,0.111-0.054
								c0.024-0.01,0.047-0.02,0.071-0.029c-0.017,0.006-0.034,0.013-0.051,0.019c0.089-0.033,0.18-0.06,0.272-0.082
								c0.112-0.027,0.225-0.048,0.338-0.065c0.073-0.011,0.147-0.02,0.221-0.028c-0.018,0.002-0.036,0.004-0.055,0.006
								c0.143-0.015,0.286-0.025,0.429-0.031c0.166-0.007,0.333-0.01,0.499-0.008c0.19,0.001,0.381,0.007,0.571,0.017
								c0.216,0.011,0.431,0.026,0.646,0.045c0.242,0.021,0.484,0.047,0.725,0.075c0.031,0.004,0.063,0.008,0.094,0.011
								c0.028,0.002,0.055-0.003,0.08-0.015c0.027-0.008,0.051-0.022,0.071-0.042c0.023-0.02,0.039-0.043,0.048-0.071
								c0.014-0.025,0.021-0.052,0.02-0.081c-0.001-0.055-0.017-0.112-0.057-0.151c-0.015-0.012-0.03-0.024-0.045-0.037
								c-0.033-0.02-0.069-0.031-0.108-0.032c-0.185-0.023-0.369-0.044-0.555-0.062c-0.169-0.017-0.338-0.032-0.507-0.044
								c-0.156-0.012-0.312-0.021-0.468-0.028c-0.141-0.006-0.283-0.011-0.425-0.013c-0.128-0.002-0.256-0.002-0.384,0.001
								c-0.115,0.002-0.23,0.007-0.345,0.014c-0.12,0.007-0.24,0.018-0.36,0.032c-0.091,0.01-0.181,0.022-0.271,0.037
								c-0.079,0.013-0.158,0.028-0.236,0.046c-0.068,0.016-0.136,0.034-0.203,0.055c-0.074,0.024-0.147,0.051-0.219,0.081
								c-0.047,0.02-0.094,0.043-0.138,0.069c-0.053,0.031-0.104,0.067-0.152,0.106c-0.044,0.036-0.079,0.078-0.114,0.122
								c-0.027,0.033-0.045,0.069-0.062,0.107c-0.01,0.022-0.02,0.044-0.027,0.067c-0.009,0.031-0.013,0.065-0.017,0.096
								c-0.002,0.014-0.003,0.028-0.002,0.042c0.001,0.032,0.004,0.064,0.01,0.096c0.002,0.014,0.006,0.028,0.01,0.042
								c0.01,0.031,0.021,0.063,0.035,0.093c0.021,0.046,0.051,0.087,0.081,0.128c0.021,0.029,0.045,0.055,0.07,0.08
								c0.042,0.041,0.088,0.078,0.136,0.113c0.036,0.026,0.073,0.05,0.111,0.072c0.042,0.024,0.085,0.046,0.129,0.067
								c0.065,0.03,0.131,0.058,0.198,0.083c0.053,0.019,0.107,0.037,0.162,0.052c0.058,0.016,0.117,0.031,0.177,0.043
								c0.081,0.017,0.162,0.03,0.244,0.041c0.067,0.009,0.135,0.017,0.202,0.022c0.071,0.005,0.142,0.009,0.213,0.01
								c0.075,0.001,0.149,0,0.224-0.004c0.095-0.005,0.189-0.014,0.284-0.024c0.08-0.009,0.16-0.02,0.24-0.034
								c0.082-0.014,0.164-0.031,0.245-0.051c0.084-0.02,0.168-0.043,0.25-0.068c0.103-0.032,0.203-0.068,0.304-0.106
								c0.087-0.033,0.172-0.069,0.257-0.107c0.087-0.04,0.173-0.083,0.258-0.128c0.088-0.047,0.174-0.098,0.258-0.151
								c0.103-0.065,0.203-0.134,0.301-0.206c0.087-0.063,0.171-0.129,0.254-0.198c0.083-0.069,0.164-0.141,0.243-0.216
								c0.023-0.02,0.039-0.043,0.048-0.071c0.014-0.025,0.021-0.052,0.02-0.081c0.002-0.028-0.003-0.055-0.015-0.08
								c-0.008-0.027-0.022-0.051-0.042-0.071c-0.015-0.012-0.03-0.024-0.045-0.037c-0.033-0.02-0.069-0.031-0.108-0.032
								C79.779,23.963,79.724,23.98,79.683,24.019L79.683,24.019z"/>
							<path class="st1" d="M77.45,23.475c-0.016-0.012-0.032-0.025-0.047-0.038c-0.01-0.008-0.047-0.038-0.018-0.014
								c-0.033-0.027-0.066-0.055-0.098-0.084c-0.064-0.056-0.126-0.113-0.187-0.172c-0.115-0.111-0.224-0.228-0.328-0.349
								c-0.049-0.057-0.096-0.116-0.142-0.175c-0.023-0.03-0.046-0.061-0.069-0.092c-0.01-0.014-0.021-0.028-0.031-0.042
								c0.025,0.035-0.004-0.005-0.013-0.018c-0.08-0.117-0.155-0.237-0.224-0.361c-0.064-0.115-0.122-0.233-0.174-0.353
								c-0.012-0.027-0.023-0.054-0.034-0.081c-0.005-0.013-0.01-0.027-0.016-0.04c-0.001-0.002,0.011,0.032-0.003-0.008
								c-0.02-0.056-0.039-0.112-0.056-0.169c-0.03-0.1-0.054-0.202-0.071-0.305c-0.004-0.025-0.007-0.05-0.011-0.074
								c-0.006-0.04,0.002,0.023,0.001,0.01c-0.001-0.013-0.002-0.026-0.003-0.038c-0.003-0.044-0.005-0.087-0.004-0.131
								c0.001-0.042,0.005-0.083,0.008-0.125c0.004-0.055-0.012,0.045,0.001-0.007c0.004-0.018,0.008-0.037,0.012-0.055
								c0.005-0.017,0.01-0.034,0.016-0.051c0.012-0.037,0.029-0.049-0.002-0.002c0.017-0.025,0.031-0.054,0.046-0.081
								c0.028-0.048-0.03,0.024-0.003,0.003c0.011-0.009,0.022-0.021,0.032-0.031c0.032-0.032,0.016-0.004-0.007,0.003
								c0.012-0.004,0.028-0.016,0.039-0.023c0.035-0.02,0.036-0.003-0.006,0c0.015-0.001,0.034-0.01,0.049-0.014
								c0.015-0.004,0.03-0.004,0.045-0.007c-0.057,0.012-0.029,0.001,0.005,0.003c0.017,0.001,0.034,0.001,0.051,0.002
								c0.009,0.001,0.018,0.003,0.027,0.003c0.041,0.001-0.05-0.013-0.009-0.001c0.041,0.012,0.082,0.019,0.122,0.032
								c0.021,0.007,0.042,0.015,0.063,0.023c0.011,0.004,0.022,0.009,0.032,0.013c0.027,0.011-0.046-0.023,0.003,0.002
								c0.05,0.025,0.099,0.05,0.147,0.078c0.117,0.069,0.229,0.149,0.335,0.233c0.014,0.011,0.028,0.023,0.043,0.034
								c-0.031-0.025,0.001,0.001,0.013,0.011c0.032,0.028,0.065,0.055,0.096,0.084c0.069,0.061,0.136,0.124,0.202,0.189
								c0.782,0.763,1.416,1.679,2.005,2.595c0.101,0.157,0.201,0.316,0.299,0.475c0.145,0.234,0.525,0.034,0.379-0.202
								c-0.654-1.055-1.355-2.117-2.222-3.012c-0.25-0.258-0.519-0.507-0.82-0.706c-0.202-0.134-0.428-0.247-0.671-0.277
								c-0.419-0.052-0.695,0.253-0.75,0.644c-0.065,0.46,0.106,0.949,0.303,1.357c0.279,0.578,0.693,1.097,1.177,1.516
								c0.077,0.067,0.157,0.132,0.238,0.195c0.091,0.072,0.24,0.021,0.296-0.07C77.586,23.663,77.541,23.547,77.45,23.475
								L77.45,23.475z"/>
							<path class="st1" d="M77.223,23.494c-0.023,0-0.047-0.004-0.07-0.003c-0.037,0.001,0.037,0.011,0.024,0.004
								c-0.006-0.003-0.019-0.005-0.027-0.006c-0.05-0.006,0.024,0.014,0.014,0.008c-0.046-0.026,0.019,0.026,0.012,0.013
								c-0.005-0.008-0.015-0.015-0.021-0.023c-0.021-0.028,0.04,0.057,0.01,0.014c-0.024-0.035-0.047-0.071-0.075-0.102
								c-0.201-0.223-0.562-0.257-0.84-0.284c-0.405-0.04-0.815-0.035-1.222-0.025c-0.275,0.007-0.288,0.436-0.01,0.43
								c0.374-0.009,0.75-0.013,1.124,0.016c0.059,0.005,0.119,0.01,0.178,0.017c0.025,0.003,0.049,0.006,0.073,0.009
								c0.063,0.008-0.015-0.004,0.044,0.007c0.074,0.014,0.147,0.029,0.219,0.054c0.014,0.005,0.028,0.01,0.042,0.015
								c0.038,0.014,0.012,0.01-0.012-0.006c0.018,0.012,0.04,0.021,0.059,0.032c0.008,0.005,0.015,0.012,0.024,0.016
								c0.026,0.013-0.042-0.045-0.02-0.017c0.009,0.011,0.022,0.022,0.032,0.032c0.004,0.004,0.016,0.027,0.022,0.028
								c-0.017-0.004-0.039-0.056-0.019-0.027c0.004,0.005,0.007,0.011,0.011,0.016c0.023,0.033,0.043,0.064,0.071,0.092
								c0.092,0.092,0.222,0.118,0.348,0.118C77.488,23.924,77.5,23.495,77.223,23.494L77.223,23.494z"/>
							<path class="st1" d="M85.503,25.447c-0.134-0.051-0.281-0.071-0.424-0.073c-0.167-0.003-0.335,0.018-0.498,0.051
								c-0.17,0.034-0.337,0.083-0.5,0.139c-0.198,0.069-0.393,0.147-0.584,0.234c-0.189,0.086-0.374,0.179-0.556,0.278
								c-0.187,0.102-0.371,0.209-0.552,0.321c-0.18,0.112-0.357,0.228-0.531,0.348c-0.181,0.125-0.359,0.254-0.534,0.388
								c-0.148,0.114-0.293,0.231-0.434,0.352c-0.123,0.106-0.243,0.215-0.358,0.33c-0.105,0.105-0.204,0.215-0.295,0.331
								c-0.069,0.088-0.126,0.18-0.169,0.283c-0.041,0.1-0.049,0.22,0.002,0.318c0.063,0.121,0.186,0.171,0.314,0.184
								c0.117,0.012,0.24-0.011,0.354-0.037c0.167-0.038,0.33-0.094,0.491-0.154c0.252-0.094,0.5-0.199,0.744-0.311
								c0.312-0.142,0.62-0.294,0.925-0.45c0.396-0.202,0.787-0.412,1.176-0.626c0.482-0.265,0.961-0.538,1.437-0.814
								c0.267-0.155,0.532-0.311,0.797-0.468c0.097-0.057,0.15-0.187,0.089-0.291c-0.057-0.097-0.187-0.15-0.291-0.089
								c-0.677,0.401-1.358,0.795-2.045,1.177c-0.513,0.285-1.031,0.563-1.556,0.827c-0.371,0.186-0.746,0.366-1.129,0.526
								c-0.072,0.03-0.145,0.06-0.218,0.088c-0.016,0.006-0.032,0.012-0.047,0.018c-0.038,0.015,0.007-0.003,0.021-0.008
								c-0.009,0.003-0.018,0.007-0.027,0.01c-0.031,0.012-0.063,0.023-0.094,0.034c-0.106,0.037-0.213,0.071-0.321,0.099
								c-0.043,0.011-0.086,0.021-0.13,0.029c-0.019,0.003-0.037,0.006-0.056,0.009c-0.008,0.001-0.016,0.002-0.024,0.003
								c-0.032,0.004,0.065-0.006,0.039-0.004c-0.005,0-0.009,0.001-0.014,0.001c-0.029,0.002-0.059,0.004-0.088,0.002
								c-0.012-0.001-0.024-0.002-0.035-0.003c0.096,0.009,0.047,0.009,0.021,0.001c-0.009-0.003-0.018-0.006-0.026-0.009
								c0.018,0.008,0.035,0.016,0.053,0.023c-0.011-0.005-0.021-0.011-0.031-0.018c0.015,0.012,0.03,0.024,0.045,0.037
								c-0.005-0.004-0.008-0.008-0.013-0.012c-0.002-0.002-0.003-0.005-0.005-0.006c0,0,0.038,0.063,0.027,0.037
								c-0.012-0.028,0.001-0.021,0.012,0.035c-0.001-0.005-0.003-0.011-0.005-0.017c-0.01-0.034,0.002,0.071,0.004,0.035
								c0-0.007,0-0.013,0.001-0.02c0-0.003,0.001-0.007,0.001-0.01c0.002-0.026-0.014,0.073-0.007,0.043
								c0.002-0.008,0.003-0.016,0.006-0.023c0.005-0.019,0.013-0.038,0.021-0.057c-0.008,0.018-0.016,0.035-0.023,0.053
								c0.031-0.07,0.075-0.133,0.121-0.194c0.016-0.022,0.033-0.043,0.05-0.064c-0.012,0.015-0.024,0.03-0.037,0.045
								c0.091-0.111,0.191-0.214,0.294-0.313c0.127-0.123,0.26-0.24,0.396-0.354c0.155-0.13,0.315-0.254,0.477-0.375
								c0.043-0.032,0.086-0.063,0.129-0.095c0.022-0.016,0.044-0.032,0.066-0.047c0.029-0.021-0.019,0.013-0.026,0.018
								c0.005-0.004,0.01-0.007,0.016-0.011c0.012-0.008,0.024-0.017,0.035-0.025c0.09-0.064,0.182-0.126,0.274-0.187
								c0.187-0.124,0.378-0.244,0.571-0.358c0.192-0.113,0.387-0.22,0.585-0.319c0.189-0.095,0.381-0.183,0.577-0.261
								c0.023-0.009,0.047-0.019,0.07-0.028c0.011-0.004,0.022-0.008,0.033-0.013c0.02-0.008-0.064,0.024-0.031,0.012
								c0.007-0.003,0.014-0.005,0.02-0.008c0.046-0.017,0.092-0.033,0.138-0.049c0.088-0.03,0.178-0.057,0.268-0.081
								c0.084-0.022,0.169-0.041,0.254-0.056c0.04-0.007,0.081-0.013,0.121-0.018c0.009-0.001,0.019-0.002,0.028-0.003
								c0.031-0.004-0.062,0.006-0.037,0.004c0.006-0.001,0.011-0.001,0.017-0.002c0.019-0.002,0.039-0.003,0.058-0.005
								c0.073-0.005,0.146-0.005,0.219,0c0.017,0.001,0.034,0.003,0.052,0.005c0.008,0.001,0.016,0.002,0.024,0.003
								c0.045,0.006-0.057-0.01-0.026-0.004c0.032,0.006,0.064,0.012,0.096,0.021c0.029,0.008,0.059,0.017,0.087,0.028
								c0.105,0.04,0.24-0.04,0.267-0.146C85.679,25.593,85.616,25.49,85.503,25.447L85.503,25.447z"/>
							<path class="st1" d="M84.485,25.091c-0.038-0.016-0.079-0.03-0.116-0.049c0.06,0.031-0.002-0.001-0.016-0.008
								c-0.023-0.01-0.045-0.021-0.067-0.032c-0.071-0.035-0.142-0.071-0.211-0.11c-0.133-0.075-0.262-0.158-0.385-0.25
								c-0.028-0.021-0.056-0.043-0.084-0.065c-0.007-0.005-0.036-0.022-0.036-0.029c0.001,0.01,0.044,0.037,0.013,0.011
								c-0.009-0.007-0.018-0.015-0.026-0.022c-0.052-0.045-0.103-0.091-0.153-0.139c-0.093-0.09-0.18-0.187-0.26-0.288
								c-0.017-0.022-0.035-0.045-0.051-0.067c-0.015-0.02-0.046-0.043,0.001,0.002c-0.011-0.01-0.019-0.027-0.028-0.04
								c-0.033-0.048-0.064-0.097-0.093-0.147c-0.055-0.093-0.103-0.19-0.144-0.291c-0.004-0.011-0.008-0.024-0.014-0.035
								c0.032,0.056,0.013,0.035,0.005,0.013c-0.009-0.025-0.017-0.05-0.025-0.076c-0.014-0.045-0.026-0.091-0.037-0.137
								c-0.01-0.044-0.017-0.087-0.023-0.132c-0.001-0.009-0.001-0.019-0.003-0.028c0.018,0.07,0.003,0.037,0.002,0.014
								c-0.001-0.02-0.003-0.04-0.003-0.06c-0.001-0.04,0-0.08,0.003-0.12c0.002-0.017,0.005-0.034,0.006-0.051
								c-0.006,0.076-0.004,0.025,0.002-0.005c0.007-0.033,0.018-0.066,0.029-0.098c0.003-0.007,0.006-0.015,0.009-0.022
								c0.006-0.019-0.032,0.063-0.012,0.026c0.008-0.014,0.015-0.029,0.023-0.043c0.008-0.013,0.016-0.025,0.025-0.038
								c0.035-0.052-0.041,0.041-0.004,0.004c0.021-0.021,0.045-0.04,0.066-0.06c0.014-0.013-0.056,0.034-0.025,0.018
								c0.007-0.004,0.014-0.009,0.021-0.013c0.013-0.007,0.026-0.014,0.039-0.02c0.052-0.026-0.043,0.011-0.004,0.001
								c0.017-0.004,0.033-0.01,0.05-0.013c0.015-0.003,0.03-0.004,0.045-0.007c-0.071,0.016-0.028,0.002,0.004,0.002
								c0.039-0.001,0.077,0.004,0.116,0.007c0.03,0.003-0.064-0.012-0.023-0.003c0.01,0.002,0.02,0.004,0.03,0.006
								c0.022,0.005,0.043,0.01,0.065,0.016c0.046,0.013,0.09,0.03,0.134,0.047c0.023,0.009,0.05,0.032-0.011-0.005
								c0.011,0.007,0.024,0.011,0.035,0.016c0.025,0.012,0.051,0.025,0.076,0.039c0.053,0.029,0.104,0.06,0.155,0.092
								c0.056,0.037,0.111,0.075,0.164,0.116c0.028,0.021,0.056,0.043,0.083,0.065c0.027,0.021-0.039-0.033,0.003,0.002
								c0.016,0.014,0.032,0.027,0.048,0.041c0.29,0.25,0.547,0.538,0.786,0.836c0.074,0.093,0.147,0.187,0.218,0.282
								c0.035,0.046,0.069,0.093,0.103,0.14c0.01,0.014,0.02,0.028,0.031,0.042c0.023,0.033-0.029-0.041,0.011,0.015
								c0.021,0.029,0.041,0.059,0.062,0.088c0.166,0.239,0.324,0.482,0.476,0.73c0.082,0.134,0.163,0.269,0.242,0.405
								c0.058,0.1,0.185,0.145,0.291,0.089c0.1-0.053,0.148-0.19,0.089-0.291c-0.309-0.529-0.64-1.046-1.007-1.536
								c-0.258-0.344-0.535-0.676-0.848-0.97c-0.217-0.204-0.454-0.399-0.72-0.535c-0.189-0.096-0.403-0.176-0.619-0.165
								c-0.18,0.009-0.359,0.075-0.481,0.212c-0.129,0.145-0.19,0.322-0.209,0.513c-0.043,0.428,0.144,0.876,0.38,1.222
								c0.348,0.511,0.842,0.908,1.399,1.174c0.092,0.044,0.186,0.085,0.28,0.124c0.107,0.044,0.236-0.043,0.267-0.146
								C84.666,25.236,84.593,25.135,84.485,25.091L84.485,25.091z"/>
							<path class="st1" d="M95.018,27.641c-1.277-0.081-2.322,0.772-3.188,1.608c-0.987,0.952-1.897,2.105-3.149,2.722
								c-0.712,0.351-1.476,0.416-2.237,0.191c0.041,0.106,0.082,0.213,0.122,0.319c1.681-2.324,4.204-3.701,7.003-4.195
								c0.273-0.048,0.173-0.466-0.099-0.418c-2.915,0.515-5.522,1.972-7.27,4.388c-0.083,0.115-0.003,0.282,0.122,0.319
								c2.993,0.885,4.707-2.331,6.751-3.835c0.568-0.418,1.216-0.714,1.933-0.669C95.284,28.088,95.294,27.658,95.018,27.641
								L95.018,27.641z"/>
							<path class="st1" d="M91.051,30.058c-0.369,0.585-0.802,1.244-0.938,1.936c-0.065,0.331-0.005,0.755,0.412,0.778
								c0.408,0.023,0.821-0.299,1.121-0.534c0.544-0.426,1.013-0.946,1.442-1.484c0.647-0.812,1.192-1.704,1.631-2.644
								c0.116-0.248-0.249-0.476-0.366-0.226c-0.642,1.375-1.512,2.699-2.637,3.729c-0.182,0.167-0.372,0.329-0.577,0.467
								c-0.076,0.051-0.154,0.1-0.235,0.143c-0.077,0.041-0.167,0.082-0.214,0.095c-0.029,0.008-0.058,0.016-0.088,0.022
								c-0.061,0.013,0.019,0.001-0.04,0.004c-0.067,0.003,0.001,0.004-0.032-0.002c-0.025-0.005-0.024-0.021,0.012,0.008
								c-0.022-0.018-0.058-0.014-0.004,0.003c-0.004-0.001-0.016-0.015-0.017-0.017c-0.024-0.038,0.026,0.046,0.004,0.005
								c-0.026-0.049,0.004,0.032-0.009-0.027c-0.012-0.052-0.005,0.012-0.006-0.044c0-0.044,0.002-0.087,0.008-0.13
								c0.027-0.202,0.14-0.478,0.239-0.689c0.19-0.404,0.419-0.789,0.657-1.167C91.564,30.05,91.199,29.824,91.051,30.058
								L91.051,30.058z"/>
							<path class="st1" d="M94.955,27.674c-0.087-0.017-0.174-0.039-0.259-0.064c-0.083-0.024-0.166-0.052-0.246-0.084
								c-0.045-0.018-0.09-0.036-0.134-0.056c0.018,0.008,0.035,0.016,0.053,0.023c-0.104-0.046-0.205-0.098-0.303-0.156
								c-0.096-0.056-0.189-0.118-0.279-0.184c-0.05-0.037-0.1-0.075-0.148-0.115c0.015,0.012,0.03,0.024,0.045,0.037
								c-0.105-0.086-0.205-0.179-0.3-0.277c-0.094-0.097-0.183-0.198-0.267-0.304c-0.047-0.059-0.092-0.119-0.136-0.18
								c0.011,0.015,0.022,0.03,0.032,0.045c-0.047-0.066-0.092-0.133-0.135-0.201c-0.042-0.067-0.083-0.135-0.122-0.205
								c-0.038-0.068-0.075-0.137-0.11-0.207c-0.034-0.069-0.067-0.139-0.098-0.209c-0.03-0.069-0.059-0.138-0.085-0.208
								c-0.003-0.008-0.006-0.017-0.01-0.025c0.006,0.017,0.013,0.034,0.019,0.051c-0.024-0.065-0.047-0.13-0.068-0.196
								c-0.021-0.063-0.04-0.127-0.057-0.192c-0.017-0.062-0.032-0.124-0.046-0.186c-0.013-0.06-0.025-0.119-0.035-0.18
								c-0.01-0.057-0.018-0.114-0.024-0.171c-0.001-0.007-0.001-0.014-0.002-0.02c0.002,0.018,0.004,0.036,0.006,0.055
								c-0.007-0.069-0.012-0.138-0.013-0.207c-0.001-0.063,0-0.125,0.005-0.188c0.003-0.032,0.006-0.064,0.011-0.095
								c-0.003,0.018-0.006,0.037-0.009,0.055c0.009-0.06,0.023-0.119,0.043-0.176c0.005-0.014,0.011-0.028,0.017-0.042
								c-0.008,0.018-0.016,0.035-0.023,0.053c0.013-0.03,0.029-0.059,0.048-0.085c0.005-0.007,0.01-0.014,0.016-0.02
								c-0.012,0.015-0.024,0.03-0.037,0.045c0.018-0.022,0.038-0.041,0.061-0.057c-0.015,0.011-0.03,0.022-0.045,0.032
								c0.019-0.013,0.039-0.024,0.061-0.032c-0.017,0.006-0.034,0.013-0.051,0.019c0.022-0.008,0.045-0.013,0.068-0.016
								c-0.018,0.002-0.036,0.004-0.055,0.006c0.029-0.003,0.058-0.002,0.087,0.003c-0.018-0.003-0.037-0.006-0.055-0.009
								c0.035,0.005,0.069,0.015,0.102,0.028c0.01,0.004,0.021,0.008,0.031,0.013c-0.018-0.008-0.035-0.016-0.053-0.023
								c0.067,0.03,0.129,0.07,0.188,0.113c0.02,0.015,0.039,0.03,0.058,0.046c-0.015-0.012-0.03-0.024-0.045-0.037
								c0.081,0.066,0.155,0.139,0.227,0.215c0.09,0.096,0.174,0.197,0.254,0.301c0.053,0.069,0.105,0.139,0.156,0.21
								c-0.011-0.015-0.022-0.03-0.032-0.045c0.104,0.146,0.203,0.296,0.298,0.448c0.113,0.181,0.221,0.365,0.325,0.55
								c0.122,0.217,0.239,0.437,0.352,0.659c0.13,0.254,0.256,0.511,0.377,0.769c0.14,0.296,0.275,0.594,0.406,0.894
								c0.017,0.039,0.035,0.079,0.052,0.119c0.013,0.026,0.031,0.048,0.055,0.064c0.021,0.02,0.046,0.034,0.075,0.042
								c0.05,0.015,0.116,0.01,0.161-0.017c0.049-0.029,0.092-0.073,0.105-0.129c0.003-0.018,0.006-0.037,0.009-0.055
								c0.001-0.038-0.008-0.073-0.025-0.106c-0.096-0.22-0.194-0.44-0.293-0.658c-0.091-0.2-0.184-0.398-0.28-0.596
								c-0.087-0.18-0.175-0.358-0.266-0.536c-0.082-0.16-0.166-0.32-0.253-0.478c-0.078-0.142-0.157-0.283-0.239-0.423
								c-0.073-0.125-0.148-0.248-0.226-0.371c-0.068-0.107-0.139-0.214-0.211-0.318c-0.074-0.106-0.149-0.211-0.228-0.313
								c-0.059-0.076-0.12-0.151-0.184-0.223c-0.054-0.062-0.111-0.122-0.17-0.179c-0.063-0.061-0.13-0.118-0.199-0.173
								c-0.045-0.036-0.092-0.069-0.141-0.098c-0.057-0.033-0.117-0.062-0.179-0.084c-0.054-0.019-0.111-0.029-0.167-0.034
								c-0.051-0.004-0.104,0.001-0.153,0.013c-0.047,0.012-0.095,0.03-0.136,0.057c-0.028,0.019-0.057,0.038-0.082,0.061
								c-0.026,0.024-0.048,0.053-0.07,0.08c-0.022,0.028-0.041,0.059-0.056,0.092c-0.026,0.055-0.049,0.109-0.065,0.167
								c-0.017,0.063-0.027,0.127-0.036,0.191c-0.007,0.052-0.011,0.104-0.013,0.157c-0.002,0.058-0.001,0.116,0.002,0.174
								c0.004,0.081,0.012,0.161,0.022,0.242c0.008,0.067,0.019,0.135,0.031,0.201c0.013,0.071,0.029,0.142,0.046,0.212
								c0.018,0.074,0.039,0.147,0.061,0.22c0.023,0.076,0.049,0.151,0.076,0.226c0.034,0.094,0.07,0.187,0.109,0.279
								c0.033,0.078,0.069,0.155,0.106,0.231c0.038,0.078,0.079,0.154,0.121,0.23c0.043,0.077,0.089,0.153,0.136,0.227
								c0.058,0.09,0.119,0.178,0.182,0.265c0.053,0.073,0.109,0.144,0.167,0.214c0.059,0.07,0.119,0.139,0.183,0.205
								c0.063,0.066,0.129,0.13,0.197,0.192c0.082,0.074,0.168,0.145,0.256,0.213c0.074,0.057,0.15,0.111,0.228,0.161
								c0.079,0.051,0.16,0.098,0.244,0.142c0.101,0.053,0.205,0.1,0.31,0.143c0.09,0.037,0.182,0.07,0.275,0.098
								c0.092,0.028,0.186,0.051,0.28,0.07c0.027,0.009,0.055,0.011,0.082,0.006c0.028-0.001,0.054-0.008,0.079-0.022
								c0.047-0.025,0.092-0.077,0.105-0.129c0.013-0.053,0.012-0.113-0.017-0.161C95.057,27.732,95.011,27.685,94.955,27.674
								L94.955,27.674z"/>
							<path class="st1" d="M103.334,28.298c-0.354,0.17-0.703,0.351-1.043,0.546c-0.316,0.181-0.626,0.373-0.928,0.576
								c-0.288,0.195-0.57,0.399-0.843,0.615c-0.238,0.188-0.469,0.384-0.691,0.59c-0.198,0.184-0.39,0.375-0.572,0.574
								c-0.172,0.188-0.336,0.384-0.49,0.587c-0.124,0.164-0.24,0.333-0.345,0.509c-0.096,0.161-0.18,0.328-0.252,0.501
								c-0.052,0.124-0.095,0.253-0.12,0.385c-0.026,0.138-0.036,0.271-0.013,0.41c0.019,0.111,0.07,0.222,0.148,0.304
								c0.078,0.083,0.186,0.142,0.298,0.163c0.139,0.026,0.277,0.018,0.415-0.012c0.16-0.035,0.315-0.097,0.462-0.166
								c0.181-0.085,0.354-0.188,0.521-0.298c0.229-0.151,0.449-0.315,0.662-0.487c0.25-0.201,0.49-0.414,0.725-0.633
								c0.285-0.267,0.561-0.544,0.83-0.827c0.318-0.334,0.626-0.677,0.927-1.027c0.36-0.418,0.71-0.844,1.053-1.276
								c0.18-0.227,0.358-0.456,0.534-0.686c0.068-0.09,0.025-0.243-0.07-0.296c-0.11-0.061-0.222-0.026-0.296,0.07
								c-0.179,0.234-0.361,0.467-0.544,0.698c-0.086,0.109-0.173,0.217-0.261,0.325c-0.043,0.054-0.087,0.107-0.13,0.16
								c-0.005,0.006-0.009,0.011-0.014,0.017c-0.019,0.023,0.028-0.034,0.009-0.011c-0.009,0.011-0.018,0.022-0.028,0.034
								c-0.023,0.028-0.046,0.056-0.069,0.083c-0.313,0.378-0.633,0.751-0.962,1.115c-0.282,0.312-0.571,0.618-0.869,0.914
								c-0.249,0.248-0.505,0.49-0.77,0.721c-0.215,0.188-0.437,0.37-0.667,0.54c-0.026,0.019-0.051,0.038-0.077,0.056
								c-0.006,0.005-0.013,0.009-0.019,0.014c-0.028,0.02,0.035-0.025,0.024-0.017c-0.013,0.009-0.027,0.019-0.04,0.028
								c-0.047,0.033-0.095,0.066-0.144,0.098c-0.089,0.059-0.179,0.115-0.271,0.168c-0.08,0.046-0.162,0.09-0.245,0.129
								c-0.037,0.018-0.074,0.035-0.112,0.05c-0.018,0.008-0.036,0.015-0.055,0.022c-0.008,0.003-0.017,0.006-0.025,0.01
								c-0.011,0.004,0.064-0.024,0.034-0.013c-0.005,0.002-0.01,0.004-0.015,0.005c-0.063,0.023-0.127,0.042-0.192,0.057
								c-0.029,0.007-0.058,0.012-0.088,0.016c-0.006,0.001-0.013,0.002-0.019,0.003c-0.04,0.006,0.047-0.004,0.031-0.003
								c-0.013,0.001-0.026,0.002-0.04,0.003c-0.024,0.001-0.049,0.001-0.073,0c-0.012-0.001-0.023-0.002-0.035-0.003
								c-0.006-0.001-0.011-0.002-0.017-0.002c-0.008-0.001,0.073,0.013,0.036,0.005c-0.02-0.004-0.04-0.009-0.06-0.015
								c-0.009-0.003-0.019-0.007-0.028-0.011c-0.027-0.009,0.066,0.032,0.038,0.017c-0.005-0.002-0.009-0.004-0.014-0.007
								c-0.016-0.009-0.031-0.019-0.047-0.03c-0.027-0.019,0.045,0.039,0.033,0.027c-0.003-0.003-0.007-0.006-0.011-0.01
								c-0.007-0.006-0.013-0.013-0.019-0.02c-0.006-0.007-0.011-0.014-0.017-0.02c-0.022-0.026,0.022,0.031,0.023,0.033
								c-0.002-0.004-0.006-0.008-0.008-0.012c-0.01-0.016-0.019-0.032-0.026-0.05c-0.002-0.005-0.004-0.009-0.006-0.014
								c-0.009-0.02,0.023,0.069,0.013,0.035c-0.003-0.01-0.006-0.019-0.009-0.029c-0.006-0.02-0.01-0.041-0.013-0.062
								c-0.001-0.005-0.001-0.01-0.002-0.016c-0.005-0.032,0.006,0.07,0.004,0.034c-0.001-0.012-0.002-0.024-0.002-0.035
								c-0.001-0.025-0.001-0.049,0.001-0.074c0.001-0.026,0.004-0.053,0.007-0.079c0.001-0.007,0.002-0.014,0.003-0.021
								c0.002-0.016-0.012,0.072-0.005,0.031c0.003-0.014,0.005-0.029,0.008-0.043c0.013-0.062,0.03-0.124,0.049-0.184
								c0.022-0.068,0.048-0.135,0.076-0.201c0.004-0.009,0.008-0.018,0.012-0.027c0.017-0.04-0.028,0.061-0.01,0.022
								c0.008-0.018,0.017-0.037,0.025-0.055c0.018-0.037,0.036-0.074,0.055-0.11c0.087-0.166,0.186-0.326,0.292-0.481
								c0.06-0.088,0.123-0.174,0.188-0.258c0.034-0.044,0.068-0.088,0.103-0.132c0.008-0.011,0.017-0.021,0.025-0.031
								c0.005-0.006,0.009-0.011,0.014-0.017c0.003-0.003-0.042,0.051-0.017,0.02c0.018-0.022,0.037-0.044,0.055-0.066
								c0.164-0.194,0.336-0.38,0.516-0.559c0.202-0.201,0.412-0.394,0.63-0.578c0.239-0.203,0.487-0.397,0.741-0.581
								c0.034-0.025,0.068-0.049,0.102-0.073c0.018-0.013-0.032,0.022-0.027,0.019c0.005-0.003,0.01-0.007,0.015-0.01
								c0.007-0.005,0.015-0.01,0.022-0.016c0.019-0.013,0.037-0.026,0.056-0.039c0.069-0.048,0.139-0.096,0.21-0.143
								c0.147-0.098,0.295-0.194,0.445-0.287c0.319-0.197,0.645-0.382,0.978-0.556c0.17-0.089,0.341-0.174,0.513-0.257
								c0.102-0.049,0.146-0.193,0.089-0.291C103.563,28.283,103.442,28.246,103.334,28.298L103.334,28.298z"/>
							<path class="st1" d="M103.362,28.362c-0.124-0.081-0.244-0.169-0.358-0.263c0.015,0.012,0.03,0.024,0.045,0.037
								c-0.285-0.234-0.538-0.504-0.756-0.801c-0.013-0.017-0.025-0.035-0.038-0.052c-0.025-0.034,0.038,0.054,0.009,0.012
								c-0.007-0.01-0.013-0.019-0.02-0.029c-0.025-0.037-0.05-0.074-0.075-0.111c-0.048-0.074-0.095-0.149-0.139-0.225
								c-0.085-0.147-0.163-0.299-0.233-0.454c-0.034-0.076-0.067-0.153-0.098-0.23c-0.007-0.018-0.014-0.037-0.021-0.055
								c-0.003-0.008-0.006-0.017-0.009-0.025c0.032,0.083,0.012,0.031,0.005,0.012c-0.014-0.037-0.027-0.074-0.039-0.111
								c-0.05-0.146-0.093-0.294-0.128-0.443c-0.033-0.137-0.059-0.276-0.078-0.416c-0.004-0.033-0.008-0.067-0.012-0.1
								c0.01,0.094,0.003,0.027,0.001,0.004c-0.002-0.017-0.003-0.034-0.004-0.05c-0.005-0.062-0.008-0.124-0.009-0.186
								c-0.002-0.11,0.003-0.22,0.018-0.329c0.003-0.023,0.013-0.079-0.003,0.016c0.002-0.013,0.004-0.025,0.006-0.038
								c0.004-0.023,0.009-0.047,0.014-0.07c0.01-0.043,0.022-0.085,0.037-0.126c0.007-0.018,0.014-0.036,0.022-0.054
								c-0.008,0.018-0.016,0.035-0.023,0.053c0.022-0.048,0.048-0.095,0.081-0.136c-0.012,0.015-0.024,0.03-0.037,0.045
								c0.02-0.024,0.042-0.045,0.066-0.064c0.031-0.025-0.059,0.039-0.026,0.018c0.006-0.004,0.012-0.008,0.019-0.011
								c0.013-0.007,0.026-0.013,0.039-0.018c-0.083,0.037-0.038,0.013-0.008,0.006c0.006-0.001,0.013-0.003,0.019-0.004
								c0.045-0.008-0.064,0.004-0.029,0.003c0.015-0.001,0.03-0.001,0.046,0c0.007,0,0.014,0.001,0.022,0.002
								c0.044,0.004-0.066-0.013-0.027-0.004c0.04,0.008,0.079,0.021,0.116,0.037c-0.018-0.008-0.035-0.016-0.053-0.023
								c0.08,0.036,0.152,0.085,0.219,0.14c-0.015-0.012-0.03-0.024-0.045-0.037c0.125,0.103,0.234,0.224,0.335,0.351
								c0.031,0.039,0.062,0.079,0.092,0.119c0.016,0.021,0.031,0.042,0.046,0.063c0.017,0.024-0.037-0.052-0.017-0.024
								c0.003,0.005,0.007,0.01,0.01,0.015c0.009,0.012,0.017,0.025,0.026,0.038c0.069,0.1,0.135,0.203,0.198,0.307
								c0.155,0.254,0.295,0.517,0.427,0.784c0.169,0.34,0.324,0.687,0.471,1.037c0.086,0.205,0.17,0.412,0.251,0.619
								c0.044,0.112,0.087,0.224,0.129,0.336c0.002,0.006,0.005,0.013,0.007,0.019c0.008,0.022-0.008-0.021-0.007-0.02
								c0.005,0.015,0.011,0.03,0.017,0.044c0.011,0.03,0.022,0.06,0.033,0.09c0.023,0.061,0.045,0.122,0.067,0.183
								c0.022,0.06,0.044,0.12,0.065,0.181c0.02,0.056,0.044,0.101,0.096,0.133c0.045,0.028,0.111,0.041,0.162,0.026
								c0.102-0.029,0.2-0.146,0.16-0.258c-0.269-0.751-0.558-1.497-0.894-2.221c-0.22-0.475-0.46-0.946-0.75-1.383
								c-0.193-0.291-0.405-0.574-0.683-0.79c-0.17-0.132-0.39-0.229-0.608-0.181c-0.218,0.048-0.353,0.23-0.434,0.425
								c-0.043,0.105-0.064,0.216-0.081,0.327c-0.017,0.113-0.024,0.228-0.023,0.342c0.002,0.298,0.046,0.597,0.115,0.886
								c0.082,0.342,0.202,0.677,0.35,0.996c0.162,0.348,0.363,0.676,0.597,0.98c0.248,0.322,0.538,0.608,0.861,0.854
								c0.078,0.06,0.159,0.117,0.241,0.17c0.094,0.062,0.24,0.03,0.296-0.07C103.489,28.553,103.462,28.428,103.362,28.362
								L103.362,28.362z"/>
							<path class="st1" d="M102.084,26.919c-0.392-0.18-0.832-0.231-1.26-0.226c-0.414,0.005-0.841,0.055-1.237,0.18
								c-0.279,0.088-0.698,0.244-0.727,0.589c-0.033,0.396,0.496,0.576,0.788,0.668c0.32,0.1,0.652,0.163,0.982,0.217
								c0.527,0.085,1.058,0.144,1.589,0.189c0.158,0.013,0.315,0.026,0.473,0.037c0.112,0.008,0.222-0.097,0.22-0.21
								c-0.002-0.121-0.089-0.211-0.21-0.22c-0.551-0.039-1.101-0.089-1.649-0.164c-0.053-0.007-0.107-0.015-0.16-0.023
								c-0.024-0.004-0.049-0.007-0.073-0.011c-0.055-0.008,0.046,0.007-0.008-0.001c-0.016-0.002-0.031-0.005-0.047-0.007
								c-0.095-0.015-0.191-0.032-0.285-0.049c-0.163-0.03-0.324-0.065-0.485-0.106c-0.123-0.031-0.244-0.067-0.363-0.11
								c-0.049-0.018-0.096-0.039-0.145-0.058c0.085,0.033,0.009,0.004-0.013-0.007c-0.02-0.01-0.039-0.02-0.058-0.031
								c-0.031-0.017-0.061-0.036-0.09-0.057c-0.006-0.004-0.011-0.009-0.017-0.013c-0.031-0.022,0.05,0.045,0.023,0.019
								c-0.01-0.01-0.021-0.019-0.031-0.029c-0.009-0.009-0.017-0.02-0.025-0.029c-0.022-0.023,0.033,0.053,0.022,0.031
								c-0.003-0.006-0.008-0.011-0.011-0.017c-0.004-0.008-0.007-0.019-0.013-0.026c0.045,0.057,0.017,0.057,0.013,0.034
								c-0.001-0.005-0.002-0.011-0.004-0.016c-0.014-0.041,0.004,0.064,0.003,0.025c0-0.005,0-0.01,0-0.014
								c0.005-0.034-0.006,0.036-0.006,0.038c0.004-0.007,0.005-0.02,0.007-0.028c0.011-0.046-0.033,0.057-0.01,0.022
								c0.006-0.008,0.011-0.017,0.016-0.026c0.003-0.004,0.006-0.008,0.009-0.012c0.014-0.024-0.049,0.053-0.021,0.026
								c0.018-0.017,0.034-0.035,0.053-0.051c0.01-0.008,0.021-0.016,0.031-0.024c-0.069,0.059-0.027,0.019-0.005,0.005
								c0.027-0.017,0.055-0.033,0.084-0.048c0.031-0.016,0.062-0.03,0.094-0.044c0.017-0.007,0.033-0.014,0.05-0.02
								c0.018-0.007,0.06-0.02-0.019,0.007c0.009-0.003,0.019-0.007,0.028-0.01c0.168-0.06,0.342-0.102,0.518-0.133
								c0.098-0.018,0.197-0.031,0.296-0.043c0.052-0.006-0.042,0.004-0.012,0.001c0.013-0.001,0.026-0.003,0.039-0.004
								c0.026-0.002,0.052-0.005,0.078-0.007c0.052-0.004,0.105-0.007,0.157-0.009c0.205-0.009,0.411-0.004,0.615,0.019
								c0.022,0.003,0.045,0.005,0.067,0.008c0.012,0.002,0.025,0.003,0.037,0.005c0.053,0.007-0.043-0.007-0.007-0.001
								c0.047,0.008,0.093,0.016,0.139,0.026c0.089,0.019,0.176,0.043,0.262,0.074c0.019,0.007,0.039,0.014,0.058,0.022
								c0.01,0.004,0.02,0.008,0.03,0.012c0.04,0.017-0.058-0.026-0.018-0.008c0.102,0.047,0.234,0.04,0.296-0.07
								C102.205,27.124,102.193,26.97,102.084,26.919L102.084,26.919z"/>
						</g>
					</g>
				</g>
			</g>
		</g>
	</g>
</g>
</svg>