<!-- Generator: Adobe Illustrator 24.0.1, SVG Export Plug-In  -->
<svg version="1.1" xmlns="http://www.w3.org/2000/svg" xmlns:xlink="http://www.w3.org/1999/xlink" x="0px" y="0px"
	 width="60.216px" height="56.161px" viewBox="0 0 60.216 56.161" style="enable-background:new 0 0 60.216 56.161;"
	 xml:space="preserve">
<style type="text/css">
	.st0{fill:#3A3939;}
</style>
<defs>
</defs>
<g>
	<path class="st0" d="M41.621,56.161c-4.362-0.031-7.822-1.03-10.967-3.067c-0.402-0.26-0.668-0.252-1.069,0.003
		C18.484,60.156,3.93,54.405,0.602,41.654C-2.083,31.37,4.489,20.565,14.863,18.232c5.24-1.179,10.153-0.336,14.688,2.542
		c0.551,0.35,0.863,0.153,1.285-0.115c10.611-6.738,25-1.334,28.564,10.723c3.239,10.96-3.475,22.123-14.71,24.411
		C43.484,56.039,42.239,56.09,41.621,56.161z M26.549,25.886c-4.886,5.96-5.607,16.256,1.089,23.476
		c6.63,7.149,17.768,7.819,25.128,1.534c7.469-6.378,8.665-17.412,2.758-25.035c-6.149-7.936-16.966-9.23-24.499-4.187
		c0.862,0.848,1.747,1.678,2.58,2.558c0.297,0.314,0.493,0.34,0.866,0.144c2.449-1.286,5.057-1.811,7.817-1.554
		c8.086,0.751,13.899,8.08,12.774,16.109c-1.426,10.18-13.041,15.515-21.683,9.959c-5.64-3.626-7.994-10.55-5.667-16.837
		c0.445-1.203,1.117-2.322,1.823-3.764c-0.371-0.298-0.879-0.705-1.386-1.113C27.616,26.746,27.082,26.315,26.549,25.886z
		 M26.28,49.268c-6.879,3.78-14.706,1.434-18.639-4.165c-3.935-5.602-3.334-13.185,1.47-18.097
		c4.733-4.839,12.318-5.652,17.913-1.914c2.857,1.908,4.825,4.496,5.789,7.797c1.299,4.446,0.518,8.575-2.13,12.47
		c1.006,0.907,1.988,1.792,2.977,2.684c5.367-6.673,5.438-17.629-2.124-24.586c-7.405-6.812-18.888-6.28-25.811,1.202
		c-6.764,7.309-6.261,18.882,1.172,25.722c7.248,6.669,17.157,5.599,22.07,1.923C28.095,51.319,27.195,50.302,26.28,49.268z
		 M25.628,48.456c-2.498-3.423-3.829-7.241-3.827-11.498c0.002-4.272,1.324-8.112,3.829-11.553
		c-4.928-2.864-12.052-2.246-16.569,3.078c-4.158,4.901-4.033,12.399,0.254,17.196C14.038,50.965,21.198,51.134,25.628,48.456z
		 M34.683,48.498c4.303,2.625,11.635,2.548,16.435-3.029c4.414-5.129,4.151-12.833-0.717-17.816
		c-4.763-4.875-11.693-4.78-15.712-2.248C39.741,33.11,39.761,40.794,34.683,48.498z M30.099,44.369
		c3.36-4.384,2.906-11.285-0.019-14.82C27.098,33.645,26.944,39.915,30.099,44.369z"/>
	<path class="st0" d="M14.25,8.031c0.582-1.628,1.643-2.439,3.036-2.35c1.428,0.091,2.622,1.136,2.895,2.595
		c0.064,0.343-0.001,0.722-0.063,1.075c-0.362,2.073-0.741,4.143-1.116,6.214c-0.01,0.056-0.049,0.107-0.101,0.219
		c-1.169-0.363-2.34-0.728-3.511-1.09c-0.947-0.293-1.895-0.581-2.842-0.873c-1.412-0.435-2.276-1.908-2.024-3.446
		c0.237-1.45,1.468-2.446,2.973-2.401C13.737,7.98,13.976,8.009,14.25,8.031z M15.234,9.642c-0.377-0.206-0.682-0.401-1.009-0.548
		c-1.028-0.461-2.17-0.029-2.61,0.969c-0.431,0.978-0.002,2.412,0.918,2.726c1.852,0.632,3.734,1.178,5.647,1.773
		c0.053-0.228,0.1-0.4,0.132-0.575c0.297-1.635,0.589-3.27,0.888-4.904c0.214-1.167-0.675-2.331-1.873-2.443
		c-1.194-0.112-2.143,0.776-2.151,2.026C15.174,8.965,15.21,9.264,15.234,9.642z"/>
	<path class="st0" d="M23.045,7.539c-0.163-1.439-0.316-2.784-0.468-4.129c-0.03-0.262-0.056-0.524-0.089-0.785
		c-0.142-1.138,0.598-2.23,1.72-2.534c1.168-0.317,2.271,0.214,2.702,1.366c0.129,0.346,0.293,0.392,0.613,0.402
		c1.172,0.038,2.038,0.878,2.121,2.012c0.092,1.261-0.621,2.264-1.781,2.532C26.286,6.766,24.714,7.144,23.045,7.539z M23.871,6.361
		c1.339-0.317,2.558-0.598,3.773-0.896c0.829-0.204,1.27-1.029,0.998-1.832c-0.247-0.73-1.062-1.023-1.861-0.665
		c-0.246,0.11-0.488,0.228-0.766,0.358c0.037-0.414,0.097-0.755,0.093-1.095c-0.01-0.708-0.546-1.253-1.213-1.275
		c-0.705-0.024-1.503,0.608-1.457,1.271C23.532,3.571,23.713,4.911,23.871,6.361z"/>
	<path class="st0" d="M29.921,8.228c0.3,0,0.559,0,0.87,0c0,2.78,0,5.545,0,8.353c-0.274,0-0.548,0-0.87,0
		C29.921,13.834,29.921,11.066,29.921,8.228z"/>
	<path class="st0" d="M23.403,13.372c0.272-0.171,0.508-0.319,0.801-0.502c0.754,1.198,1.492,2.373,2.25,3.578
		c-0.266,0.171-0.501,0.322-0.799,0.514C24.901,15.759,24.164,14.585,23.403,13.372z"/>
	<path class="st0" d="M35.057,16.968c-0.293-0.188-0.528-0.338-0.8-0.512c0.756-1.207,1.493-2.385,2.249-3.593
		c0.283,0.178,0.534,0.337,0.811,0.511C36.561,14.576,35.831,15.737,35.057,16.968z"/>
</g>
</svg>